<svg xmlns="http://www.w3.org/2000/svg" viewBox="0 0 1200 800" role="img" aria-labelledby="title desc">
  <title id="title">Equipe de debarras</title>
  <desc id="desc">Equipe professionnelle chargeant un camion dans une cour lumineuse.</desc>
  <defs>
    <linearGradient id="wall" x1="0" x2="1" y1="0" y2="1">
      <stop stop-color="#f8f6eb" offset="0"/>
      <stop stop-color="#d9e1d1" offset="1"/>
    </linearGradient>
    <linearGradient id="truck" x1="0" x2="1">
      <stop stop-color="#f9fbf4" offset="0"/>
      <stop stop-color="#cdd9c8" offset="1"/>
    </linearGradient>
  </defs>
  <rect width="1200" height="800" fill="url(#wall)"/>
  <path d="M0 520 C230 470 490 548 740 492 C955 444 1080 480 1200 452 L1200 800 L0 800 Z" fill="#bdcbb4"/>
  <rect x="126" y="294" width="736" height="290" rx="34" fill="url(#truck)"/>
  <rect x="694" y="352" width="290" height="232" rx="26" fill="#1f3d2b"/>
  <rect x="738" y="386" width="128" height="88" rx="14" fill="#dfeadf"/>
  <rect x="196" y="354" width="382" height="172" rx="18" fill="#eef3ee"/>
  <circle cx="284" cy="606" r="58" fill="#172018"/>
  <circle cx="790" cy="606" r="58" fill="#172018"/>
  <circle cx="284" cy="606" r="24" fill="#eef3ee"/>
  <circle cx="790" cy="606" r="24" fill="#eef3ee"/>
  <g transform="translate(458 382)">
    <circle cx="46" cy="46" r="30" fill="#d28b59"/>
    <path d="M18 88 L76 88 L96 218 L-2 218 Z" fill="#1f3d2b"/>
    <path d="M30 108 L-70 156" stroke="#e7e4d9" stroke-width="18" stroke-linecap="round"/>
    <path d="M72 112 L148 166" stroke="#e7e4d9" stroke-width="18" stroke-linecap="round"/>
    <path d="M30 218 L5 322" stroke="#24312a" stroke-width="20" stroke-linecap="round"/>
    <path d="M72 218 L118 318" stroke="#24312a" stroke-width="20" stroke-linecap="round"/>
  </g>
  <g transform="translate(898 430)">
    <circle cx="42" cy="34" r="26" fill="#c97d53"/>
    <path d="M14 72 L72 72 L86 186 L-4 186 Z" fill="#8fcf9a"/>
    <path d="M12 96 L-62 128" stroke="#f1eadf" stroke-width="17" stroke-linecap="round"/>
    <path d="M70 94 L130 132" stroke="#f1eadf" stroke-width="17" stroke-linecap="round"/>
    <path d="M18 186 L4 280" stroke="#27342c" stroke-width="18" stroke-linecap="round"/>
    <path d="M64 186 L96 280" stroke="#27342c" stroke-width="18" stroke-linecap="round"/>
  </g>
  <g fill="#d9c7a4">
    <rect x="86" y="604" width="122" height="86" rx="9"/>
    <rect x="1018" y="592" width="116" height="96" rx="9"/>
    <rect x="940" y="642" width="90" height="62" rx="7"/>
  </g>
</svg>
