<svg xmlns="http://www.w3.org/2000/svg" viewBox="0 0 1200 800" role="img" aria-labelledby="title desc">
  <title id="title">Jardin avant intervention</title>
  <desc id="desc">Jardin encombre avec branches, herbes hautes et espace peu praticable.</desc>
  <defs>
    <linearGradient id="bg" x1="0" x2="1" y1="0" y2="1">
      <stop stop-color="#e8eadf" offset="0"/>
      <stop stop-color="#b5c3a8" offset=".55"/>
      <stop stop-color="#40533b" offset="1"/>
    </linearGradient>
    <filter id="blur"><feGaussianBlur stdDeviation="12"/></filter>
  </defs>
  <rect width="1200" height="800" fill="url(#bg)"/>
  <circle cx="240" cy="120" r="140" fill="#fff2c0" opacity=".65" filter="url(#blur)"/>
  <path d="M0 430 C150 360 300 460 445 390 C620 308 760 438 1200 332 L1200 800 L0 800 Z" fill="#243a28"/>
  <path d="M0 574 C180 498 320 608 540 510 C760 414 900 570 1200 468 L1200 800 L0 800 Z" fill="#19291e"/>
  <g opacity=".85" stroke-linecap="round">
    <path d="M160 618 C250 555 320 588 408 520" stroke="#7b5d36" stroke-width="28"/>
    <path d="M215 630 C290 650 348 690 420 744" stroke="#6d4e2f" stroke-width="18"/>
    <path d="M160 620 C120 674 92 710 56 744" stroke="#6d4e2f" stroke-width="16"/>
    <path d="M510 645 C622 582 720 612 826 548" stroke="#7a5b35" stroke-width="31"/>
    <path d="M662 620 C700 666 760 706 840 748" stroke="#65482e" stroke-width="17"/>
    <path d="M540 642 C480 690 440 728 398 764" stroke="#65482e" stroke-width="18"/>
  </g>
  <g opacity=".75">
    <path d="M0 800 C70 690 142 622 250 586 C238 654 225 724 230 800 Z" fill="#566b39"/>
    <path d="M160 800 C252 672 330 604 460 590 C428 680 425 746 430 800 Z" fill="#415632"/>
    <path d="M770 800 C820 648 934 560 1120 536 C1070 646 1052 730 1060 800 Z" fill="#566b39"/>
  </g>
  <g fill="#c9d1bd" opacity=".86">
    <rect x="690" y="626" width="92" height="76" rx="8" transform="rotate(-8 736 664)"/>
    <rect x="795" y="602" width="70" height="112" rx="8" transform="rotate(11 830 658)"/>
    <rect x="884" y="654" width="128" height="60" rx="8" transform="rotate(-4 948 684)"/>
  </g>
</svg>
