<svg xmlns="http://www.w3.org/2000/svg" viewBox="0 0 1200 800" role="img" aria-labelledby="title desc">
  <title id="title">Jardin apres intervention</title>
  <desc id="desc">Jardin propre, herbe tondue, branches evacuees et espace lumineux.</desc>
  <defs>
    <linearGradient id="sky" x1="0" x2="1" y1="0" y2="1">
      <stop stop-color="#f8fbf0" offset="0"/>
      <stop stop-color="#cfe4ca" offset=".48"/>
      <stop stop-color="#82a87a" offset="1"/>
    </linearGradient>
    <linearGradient id="lawn" x1="0" x2="1">
      <stop stop-color="#6f9a55" offset="0"/>
      <stop stop-color="#b4d58d" offset=".5"/>
      <stop stop-color="#3f6d3d" offset="1"/>
    </linearGradient>
  </defs>
  <rect width="1200" height="800" fill="url(#sky)"/>
  <circle cx="238" cy="138" r="112" fill="#fff5bd" opacity=".7"/>
  <path d="M0 408 C180 328 350 430 520 346 C720 250 890 392 1200 304 L1200 800 L0 800 Z" fill="#2e5837"/>
  <path d="M0 562 C250 458 470 548 690 460 C880 384 1010 482 1200 432 L1200 800 L0 800 Z" fill="url(#lawn)"/>
  <path d="M60 742 C340 642 660 610 1120 706" fill="none" stroke="#eaf0dd" stroke-width="32" opacity=".52"/>
  <g opacity=".48" stroke="#f6faed" stroke-width="4">
    <path d="M120 800 L500 520"/>
    <path d="M280 800 L630 512"/>
    <path d="M460 800 L760 508"/>
    <path d="M660 800 L920 520"/>
    <path d="M850 800 L1040 566"/>
  </g>
  <g>
    <rect x="72" y="582" width="214" height="96" rx="16" fill="#f3f0e5" opacity=".92"/>
    <rect x="103" y="612" width="152" height="12" rx="6" fill="#9fb18e"/>
    <rect x="103" y="640" width="108" height="12" rx="6" fill="#9fb18e"/>
    <path d="M914 612 C966 560 1058 556 1114 616 C1060 650 970 652 914 612 Z" fill="#dae8c7"/>
  </g>
</svg>
